<svg width="658" height="125" viewBox="0 0 658 125" xmlns="http://www.w3.org/2000/svg"><path d="M106.41 96.767l.44-3.168h2.337c5.992 0 4.97-3.17 4.238-5.476l-5.7-24.19-17.536 24.19c-2.34 4.175-2.34 5.47 1.895 5.47h2.192l-.44 3.17H74.99l.73-3.17h4.238c2.484 0 4.676-3.167 6.43-5.47l20.02-29.088L94.28 10.51c-.437-2.448-1.752-5.616-7.306-5.616h-2.338l.438-3.6H129.5l-.437 3.6h-3.8c-3.653 0-3.214 3.168-2.63 5.616l4.677 18.72 13.883-20.16c1.315-1.007 2.192-4.175-1.462-4.175h-1.75l.44-3.6h18.85l-.875 3.6h-3.36c-4.532 0-5.408 2.448-6.87 4.608l-17.1 24.335 13.008 54.287c.878 2.736 2.34 5.472 6.43 5.472h1.9l-.584 3.167h-43.41v.003zm278.396-7.2l2.776-18.865h3.216c.877 18.864 7.453 22.464 12.568 22.896 5.553.576 11.106-1.872 14.322-6.336 3.652-5.04 4.676-10.512 2.19-14.544l-23.527-40.32c-3.212-5.327-4.235-19.727 5.995-25.63C408.92 3.168 414.915 0 424.118 0c13.445 0 19 2.16 25.575 10.512l-2.776 18H443.7l-.583-10.656c-1.462-9.216-7.308-15.696-14.76-15.12-3.216.432-5.993 2.16-8.478 5.328-1.32 2.448-3.22 6.048.58 12.384l20.315 33.408c3.36 5.184 3.653 9.216 3.653 13.68 0 13.68-16.66 30.24-38.434 30.527-10.084-.29-14.322-3.168-21.19-8.497h.002zm-227.598.863L168.46 9.505c.293-2.16-4.237-4.608-5.7-4.608h-3.214l.438-3.6h44.427c14.47.864 29.38 3.6 28.94 25.775-.584 13.68-12.42 22.32-18.12 25.056-4.385 2.304-10.815 4.176-16.37 4.176h-7.307l-4.676 32.255c-.585 2.733.877 5.04 4.677 5.04h4.677l-1.022 3.165H150.34l.44-3.168c4.093-.43 6.43-.864 6.43-3.167h-.002zm41.65-37.87c2.34 0 4.678-.865 5.116-4.033.438-1.872 4.092-30.67 5.554-38.016 0-4.172-2.338-5.612-5.992-5.612h-5.115l-6.43 47.664h6.87l-.002-.002zM615.91 96.767l-21.774-78.19-10.23 70.99c-.437 2.736.585 4.032 2.776 4.032h5.116l-.877 3.164H571.05V93.6h4.677c3.653 0 3.653-2.737 3.653-4.033L590.92 9.505c.44-3.168-.877-4.608-9.645-4.608l.44-3.6h35.22l17.683 63.07 7.892-54.862c0-3.168-1.46-4.608-7.892-4.608l.44-3.6h19.874l-.438 3.6h-2.777c-3.215 0-4.677 1.44-5.115 4.608l-13.007 87.263H615.91zM44.866 47.52H58.31c3.8 0 7.455-.865 7.747-6.337l1.023-5.616h3.215L66.057 63.07h-2.63l.876-6.047c.585-3.6-2.192-6.335-5.408-6.335h-14.03l-5.99 42.91h20.02c3.946-.863 10.084-4.607 13.445-22.895h3.215l-3.653 26.064H0L.877 93.6h4.238c3.654 0 5.407-2.305 5.407-3.17L22.214 8.065c0-3.168-1.9-3.168-9.645-3.168l.435-3.6H82.57l-2.775 19.15H76.58v-2.59c0-5.617-.438-12.96-5.846-12.96h-19.73L44.866 47.52zm496.61 0h12.86c4.24 0 7.454-.865 8.478-6.337l.877-5.616h3.22l-4.093 27.504H559.6l.876-6.044c.584-3.6-1.9-6.335-5.115-6.335h-14.32l-5.99 42.91h19.876c4.677-.863 10.084-4.607 13.445-22.895h3.216l-4.092 26.064h-70.88l.44-3.17h4.24c3.214 0 5.405-2.304 5.99-3.17L518.39 8.065c0-3.168-1.9-3.168-9.646-3.168l.293-3.6h69.126l-2.485 19.15h-3.216v-2.59c0-5.617-.878-12.96-5.554-12.96h-19.73L541.48 47.52h-.004zM444.78 89.566l2.777-18.864h3.36c.293 18.864 6.87 22.464 11.84 22.896 5.99.576 11.69-1.872 14.906-6.336 3.214-5.04 4.237-10.512 2.19-14.544l-23.966-40.32c-2.777-5.327-3.8-19.727 5.99-25.63 6.58-3.6 12.57-6.768 22.217-6.768 13.153 0 19.145 2.16 25.137 10.512l-2.63 18h-3.36l-.44-10.656c-1.46-9.216-6.87-15.696-14.465-15.12-3.8.432-6.43 2.16-8.477 5.328-1.17 2.448-3.653 6.048 0 12.384L500.9 53.856c3.215 5.184 3.653 9.216 3.653 13.68 0 13.68-17.245 31.103-39.02 30.527-10.083-.29-14.322-3.168-20.752-8.497zM271.963 47.52c1.9 0 4.238-.433 4.677-4.177l4.676-33.84c.438-4.607-5.115-4.607-10.67-4.607l-5.99 42.624h7.307zm15.784 49.247c-2.777 0-5.992-1.872-5.992-3.168-.438-1.3-7.307-36-7.892-37.3-.877-1.87-1.9-4.607-3.653-4.607l-6.43-1.008-4.677 37.44c-1.023 3.6.876 5.47 5.115 5.47h3.215l-1.023 3.17h-47.204l.44-3.17h4.675c3.8 0 5.12-2.303 5.558-3.6L240.548 9.5c.437-2.16-.44-4.607-4.532-4.607h-3.8v-3.6h44.866c15.345 0 32.443 3.6 30.98 21.023-2.19 17.423-19.29 23.758-21.19 24.334-1.9.433-11.543 3.6-13.005 3.6 14.907 3.168 24.552 3.6 26.306 10.08 2.485 7.2 5.7 25.057 5.7 26.93.44.863 2.778 6.335 5.993 6.335h3.215l-1.022 3.168H287.75l-.003.004zm25.807-3.034c3.8.432 5.992-2.438 5.992-3.302l11.107-82.363c0-3.168-1.17-3.168-9.645-3.168l1.023-3.6h68.98l-2.63 19.15h-3.212v-2.59c0-5.618-.585-12.96-5.7-12.96H359.59l-5.554 42.622h13.007c4.238 0 7.453-.864 8.33-6.336l.876-5.616h3.212l-4.092 27.504h-2.922l.584-6.046c.438-3.6-1.754-6.335-5.116-6.335h-13.884l-6.138 42.91h20.02c4.094-.863 9.793-4.607 13.008-22.895h3.216L379.9 96.77h-67.226l.876-3.035.004-.002z" fill="#E30613"/><path d="M612.245 107.246h-.004c-.14.017-.29.027-.45.026-1.3 0-3-.703-3.973-2.36-1.16 1.242-2.5 2.607-3.938 4.024l-.02.018c.024.055.05.107.074.158.713 1.34 2.896 1.724 4.17 1.353l.06-.02h.01a285.188 285.188 0 0 0 4.088-3.202l-.012.003h-.005z" fill="#FDF001"/><path d="M609.575 82.496c-.116-.024-.24-.048-.36-.074-.015-.002-.03-.006-.046-.01-.398-.08-.826-.17-1.28-.28.456.655 1.822 1.906 2.852 2.717l.056-.508c.09-.613.162-1.074.24-1.578-.004 0-.01 0-.01-.002-.475-.084-.96-.17-1.456-.27l.003.004zM597.5 79.272c-.02.092-.06.333-.12.68l2.737-.423a15.324 15.324 0 0 1-.743-.556c-1.925-1.547-1.745-.423-1.873.295v.002z"/><path d="M620.555 97.17c-.015 0-.03 0-.045-.003l-.084-.008a8.632 8.632 0 0 1-.982-.165c-.044-.01-.09-.02-.134-.032-1.38-.333-2.662-1.01-3.768-1.96l.01-.014c-.837 1.377-1.89 2.77-3.056 4.27 1.585 2.466 3.897 2.96 6.68 2.306a112.218 112.218 0 0 0 5.61-5.076c-1.428.597-2.862.804-4.23.68zm-22.95-20.874c.854-.545 1.892-1.772 2.876-3.432-.005-.004-.02-.008-.03-.012a35.844 35.844 0 0 1-1.62-.453 35.602 35.602 0 0 1-2.385 3.012l1.14.876h.017l.006.005-.003.003zm13.07-2.063c-1.83 2.997-4.04 5.3-4.874 5.813 2.38 1.292 4.795 1.904 6.818.676 1.542-.93 4.114-3.39 5.987-6.252-.32.003-.643.007-.958.007a99.083 99.083 0 0 1-6.97-.244h-.002zm5.935 10.537c.602 1.472.878 2.815.89 4.084 4.314 1.263 14.395-2.49 17.856-8.06v-.002l.01-.01.004-.006c.225-2.347-.673-4.394-3.27-5.837l-.403-.226.124.068c-1.34 2.206-8.23 7.954-15.21 9.986v.002z" fill="#FDF001"/><path d="M635.356 80.79v.002c-3.462 5.57-13.543 9.324-17.857 8.06 0 .264-.01.525-.03.783v.03c-.014.136-.027.27-.044.404-.018.122-.032.25-.052.372v.007c-.027.154-.06.307-.09.46l-.058.226c-.01.053-.02.105-.034.157-.06.22-.12.436-.19.652-.02.06-.046.12-.066.182-.055.16-.113.324-.182.484-.016.045-.03.09-.05.134-.015.03-.026.062-.04.093-.084.198-.174.396-.268.595-.035.072-.07.144-.107.215a3.536 3.536 0 0 1-.117.23c-.045.088-.09.175-.138.263l-.09.165c-.04.07-.076.143-.12.214-.09.155-.18.31-.276.47l-.01.01c1.105.95 2.39 1.627 3.77 1.96.043.012.09.023.132.033.323.07.648.127.982.16l.084.01.044.003c1.37.123 2.804-.084 4.232-.68.553-.538 1.11-1.09 1.662-1.66.047-.046.092-.094.14-.143.037-.04.076-.077.11-.118.098-.098.193-.198.29-.297l.3-.317c.05-.052.1-.105.147-.16.86-.912 1.7-1.854 2.495-2.81l.02-.02c.146-.18.295-.36.442-.543.015-.02.03-.04.047-.06.14-.172.272-.344.41-.515a48.248 48.248 0 0 0 .467-.61l.03-.04c.14-.187.276-.373.413-.56l.16-.23.218-.305.23-.336a3.1 3.1 0 0 1 .13-.192l.25-.386.08-.126.13-.203.017-.025.13-.207c.01-.014.017-.03.025-.044 1.19-1.954 2.01-3.87 2.22-5.627v-.01c.003-.018.003-.03.007-.046 0-.017.004-.033.006-.05l.003-.04c.004-.01.005-.022.006-.033l-.003.005c-.004.01-.007.014-.01.018l.003-.003zm-22.86 18.47l-.03.043c-.43.545-.875 1.117-1.327 1.703l-.187.234c-.107.14-.216.277-.323.418-.44.58-.985 1.23-1.616 1.936-.372.42-.777.858-1.202 1.317v.005c.97 1.65 2.674 2.356 3.977 2.36.156 0 .305-.01.45-.026h.004l.012-.003.008-.007a252.068 252.068 0 0 0 3.062-2.483c.558-.462.934-.777 1.095-.912.1-.084.345-.282.697-.567.386-.315.91-.744 1.537-1.27l.12-.1c.123-.104.252-.21.38-.32l.02-.018c-2.784.65-5.096.16-6.68-2.308l.002-.002zm-4.396 11.206c-1.273.37-3.457-.014-4.17-1.353a4.54 4.54 0 0 1-.074-.156v-.002c-.324.32-.652.64-.986.966l-.722.7c-.043.04-.087.087-.128.128-.076.072-.153.145-.227.218l-.52.5c-.007.004-.01.008-.014.012-4.9 4.685-10.236 9.446-13.01 11.82l-.036.033-.345.29-.28.24c-.04.03-.074.06-.11.09l-.157.134c-.025.02-.05.04-.072.06-.01.007-.017.016-.026.022-.034.03-.066.056-.1.082-.035.03-.068.06-.104.087l-.07.057c-.044.04-.09.075-.13.107l-.06.047-.154.12c.433-.213.866-.44 1.308-.67a87.603 87.603 0 0 0 4.194-2.386c.016-.007.034-.02.05-.03a87.348 87.348 0 0 0 1.414-.87l.383-.24.06-.04.258-.16.17-.11.13-.08c-.036.023-.072.05-.11.07l.387-.247.156-.1c.015-.01.03-.02.048-.03l.498-.32.017-.013c.002-.005.01-.008.01-.01l.03-.02.014-.01c.18-.115.357-.23.534-.35.05-.03.1-.064.15-.1.212-.136.422-.275.63-.415 4.04-2.69 7.972-5.583 11.24-8.09-.006 0-.01 0-.014.002-.02.003-.04.01-.06.016l-.004.003z"/><path d="M602.268 65.672l-.584.6c-.297 1.466-.95 3.184-2.27 5.25.654.193 1.99.542 2.812.703l4.96-6.807-4.918.254zm37.305-24.34l-15.332.794-6.94 9.565c4.93-3.2 10.18-5.704 16.2-7.59a37.332 37.332 0 0 1 4.926-1.185l1.15-1.58-.003-.003zM600.88 58.52l.04.104.09.232c.014.03.024.06.033.092.042.11.082.223.12.34.003.003.004.007.006.01.093.287.184.585.264.89.008.026.014.054.02.08.034.128.066.257.096.388.017.065.027.13.04.197.02.092.043.184.06.278l.06.36c.006.04.016.083.02.126.023.16.04.323.058.485.072.75.15 1.58.102 2.52.004 0 .004-.002.008-.004.488-.492.973-.977 1.46-1.452l.153-.15c.45-.44.898-.875 1.348-1.3l.28-.267c.41-.39.822-.774 1.232-1.152.135-.127.273-.25.412-.375.374-.34.748-.68 1.123-1.01l.546-.48c.337-.29.67-.583 1.01-.865.233-.2.47-.394.705-.59.29-.24.58-.48.87-.715.31-.25.624-.495.935-.74.223-.174.442-.35.666-.523a68.98 68.98 0 0 1 1.63-1.218l-10.997.57c-.224.34-.44.69-.655 1.04-.15.24-.298.485-.444.73-.054.093-1.13 1.976-1.32 2.326a.46.46 0 0 0 .026.074h.004zm46.19-17.676c-.31-2.68-1.18-4.74-2.463-6.256l-4.83 6.633 7.293-.373v-.003zm-15.468-9.027c-5.768 1.364-12.42 5.075-18.555 10.79l11.143-.578 7.412-10.216v.003z" fill="#FDF001"/><path d="M617.064 51.844l7.047-9.71-11.173.578c-3.45 3.23-6.73 7.093-9.6 11.532l11.08-.575a72.323 72.323 0 0 1 2.65-1.83l-.003.004zm21.5-8.956a27.874 27.874 0 0 1 4.448-.375c1.497 0 2.896.14 4.183.4a20.06 20.06 0 0 0-.116-1.97l-7.38.383-1.14 1.562h.004zm1.086-1.66l4.892-6.72a6.155 6.155 0 0 0-.386-.42c-1.893-1.92-4.583-2.86-7.818-2.863h-.05c-1.424 0-2.946.19-4.54.555l-7.43 10.24 15.33-.793h.002zm-8.426 11.57l6.337-8.703c-1.2.24-2.45.56-3.76.97-6.562 2.054-12.19 4.846-17.5 8.506l14.927-.77-.003-.002zm14.584-.655l-14.534.753-8.456 11.612 14.515-.753 8.475-11.612zm-14.662 20.255c3.925-.667 7.838-1.69 11.464-3.223 4.06-1.714 7.138-3.82 9.338-6.077l-14.563.754-6.24 8.546zm-14.97 1.06l6.437-8.84-15.27.792-4.967 6.842c.89.16 2.107.346 3.583.524 2.684.324 6.23.622 10.212.682h.004zm-13.803-7.892l4.89-.252 7.436-10.21.6-.833c-4.38 3.138-8.574 6.88-12.93 11.3l.003-.004zm53.635-14.05c-.63-2.56-2.346-4.783-5.07-6.23l-4.926 6.747 9.996-.518z" fill="#E30613"/><path d="M622.74 64.612l-6.444 8.848c.445.005.896.01 1.35.01 4.18 0 8.774-.28 13.358-1.047l6.252-8.562-14.515.755v-.003zm8.406-11.708l-15 .776c-.2.137-.394.275-.59.415l-8.137 11.21 15.265-.79 8.458-11.61h.003zm6.558-8.834l-6.354 8.722 14.534-.752 4.962-6.8c-2.06-1.072-4.68-1.707-7.833-1.717-1.632 0-3.406.174-5.31.547zm18.326 7.545l-10.095.523-8.476 11.61 14.59-.755c2.895-3.014 4.233-6.283 4.23-9.23a9.737 9.737 0 0 0-.25-2.148zm-93.903 17.05l-9.842 6.362c2.775.648 5.662.89 8.28.886 3.508.002 6.53-.427 8.103-.833.113-.03.217-.056.312-.086l.017-.004c.098-.03.187-.057.268-.085-.407-1.067-.696-2.292-.834-3.692l-6.3-2.55-.003.002z" fill="#FDF001"/><path d="M557.167 45.28l-8.04 5.24c.097.37.21.75.343 1.137a21.046 21.046 0 0 1 5.392-.677c3.003 0 6.318.58 9.856 1.894l2.052-1.327a2.668 2.668 0 0 1-.115-.66c-.018-.516.12-1 .364-1.415l-9.856-4.192h.003zm6.56-4.395c-1.915-.52-3.736-.773-5.4-.77-2.878-.002-5.284.737-6.948 2.05-.15.117-.29.238-.425.364l6.2 2.635 6.568-4.283.004.003zm16.825 13.008c.45-.13.903-.252 1.35-.372l-.012-.01a48.733 48.733 0 0 0-2.493-2.78c-.065-.06-.122-.13-.182-.19-.214-.214-.43-.425-.643-.634a12.19 12.19 0 0 0-.364-.354 35.046 35.046 0 0 0-1.033-.957 32.858 32.858 0 0 0-1.087-.944 18.922 18.922 0 0 0-.38-.32 42.72 42.72 0 0 0-.997-.793l-2.09 1.352c3.23.54 6.22 2.947 7.935 6.005l-.003-.002zm-3.034-.06l1.213.516c-1.872-3.2-3.66-5.248-7.03-4.8.188.347.3.74.317 1.154.01.26-.02.51-.083.748l5.588 2.378-.004.003z" fill="#E30613"/><path d="M567.066 49.386a2.67 2.67 0 0 1 1.265-1.045 7.835 7.835 0 0 1 4.14-.474l2.158-1.394c-3.665-2.794-7.363-4.604-10.767-5.55l-6.59 4.296 9.798 4.17-.002-.002zm-10.01-4.152l-6.18-2.63c-1.35 1.28-2.114 3.004-2.12 5.182 0 .814.112 1.694.346 2.632l7.953-5.184zm18.144 8.7c1 .865 1.29 1.166 1.348 1.264a39.203 39.203 0 0 1 2.16-.75l-6.808-2.896a2.66 2.66 0 0 1-2.466 1.882 2.695 2.695 0 0 1-2.636-1.787l-1.965 1.27c.365.137.732.283 1.1.437l.25.103c.31.132.624.27.94.415.16.073.325.15.49.227.176.08.354.17.53.255.322.156.647.32.97.49l.085.045c.472.248.945.51 1.42.783 1.984-1.808 3.063-3.05 4.583-1.742v.004zm-20.34-1.942c-1.93 0-3.712.25-5.325.698l9.365 3.947 4.75-3.073c-3.165-1.094-6.117-1.572-8.79-1.572zm4.05 4.756l-10 6.467 13.206 5.336 6.75-4.36c.023-.13.044-.26.072-.392-1.573-.634-2.71-1.697-3.172-2.363-.223-.322-.07-.864.46-1.6l-7.315-3.084v-.002zm-18.36 3.197a8.942 8.942 0 0 0-.672 3.365c.002 1.583.44 3.19 1.38 4.733l7.434-4.808-8.142-3.29z" fill="#FDF001"/><path d="M548.806 63.282l-7.493 4.846c.078.126.153.255.238.38 2.387 3.51 6.36 5.478 10.6 6.488l9.865-6.377-13.206-5.34-.004.002zm9.992-6.58l-9.423-3.97c-2.144.614-3.982 1.58-5.45 2.774-1.538 1.25-2.667 2.742-3.337 4.347l8.208 3.317 10.002-6.468zm3.432 11.895l6.188 2.502c-.174-1.91-.062-4.156.42-6.78l-6.61 4.274.002.003zm7.032-12.53l-.09-.048c-.03-.02-.063-.04-.093-.056h-.005c-.258-.14-.515-.273-.768-.404l-.15-.073c-.193-.1-.39-.197-.582-.29l-.21-.1-.51-.24-.243-.11c-.158-.072-.32-.143-.48-.212-.082-.035-.164-.072-.248-.107l-.474-.198-.243-.1c-.168-.065-.333-.13-.497-.192a36.677 36.677 0 0 0-.904-.33l-4.758 3.077 7.27 3.064c.587-.778 1.587-1.765 3.025-2.93l.52-.437c-.19-.11-.38-.214-.568-.317h.007z" fill="#E30613"/><path d="M574.955 72.225a4.327 4.327 0 0 1-.042-.618c0-2.197 1.64-4.12 3.916-4.42a4.54 4.54 0 0 1 4.77 2.62 14.17 14.17 0 0 0-.507-2.688c-1.235-4.25-4.37-7.005-7.453-6.148-3.075.87-4.443 5.05-3.217 9.315.754 2.613 2.453 4.17 4.344 4.925a4.44 4.44 0 0 1-1.813-2.99v.003zm17.735-16.737c-3.19-.255-6.06 3.415-5.935 7.855.07 2.48.8 4.296 1.972 5.428a4.402 4.402 0 0 1-.897-2.67c0-2.2 1.643-4.112 3.915-4.42.213-.025.428-.04.638-.04 2.225 0 4.164 1.614 4.482 3.857.03.21.044.418.044.624 0 .378-.058.746-.15 1.1.38-.92.624-2.06.735-3.422.356-4.404-1.618-8.06-4.808-8.308l.003-.002z" fill="#fff"/><path d="M582.718 74.422a4.246 4.246 0 0 0 1.03-3.396 4.65 4.65 0 0 0-.105-.494c-.5-1.878-2.224-3.188-4.187-3.188-.2 0-.4.012-.602.04-2.174.29-3.74 2.128-3.74 4.222 0 .194.014.39.04.59.216 1.533 1.237 2.76 2.586 3.334a4.346 4.346 0 0 0 2.797.214 4.294 4.294 0 0 0 2.18-1.322zm-2.777-1.965l.03.268.24 2.077-.02.005c-.07.016-.224.04-.283.05-1.795.247-3.453-.972-3.737-2.728a.606.606 0 0 1-.013-.068c-.256-1.798 1.015-3.452 2.838-3.702 1.817-.25 3.504 1.008 3.754 2.8a3.25 3.25 0 0 1-.87 2.69l-1.94-1.395v.002zm12.445-10.617c-.2 0-.405.013-.61.04-2.172.292-3.74 2.12-3.74 4.22a4.24 4.24 0 0 0 1.79 3.46 4.353 4.353 0 0 0 3.148.773 4.355 4.355 0 0 0 2.386-1.132 4.218 4.218 0 0 0 1.353-3.08c0-.196-.017-.395-.045-.595-.304-2.14-2.155-3.683-4.282-3.683v-.002zm2.297 6.63l-2.077-1.598.226 2.477c-1.82.25-3.5-1-3.754-2.798-.255-1.793 1.02-3.445 2.84-3.693 1.822-.26 3.502 1.002 3.753 2.794a3.272 3.272 0 0 1-.988 2.813v.003z" fill="#FDF001"/><path d="M653.512 45.8c-1.412-1.177-3.194-2.088-5.307-2.65v-.042c.004-4.332-1.206-7.578-3.327-9.73-2.124-2.153-5.115-3.164-8.54-3.163-10.876.03-26.477 9.992-36.013 27.094-.382-.73-.758-1.255-1.017-1.45-.692-.51-1.484-.892-.524-2.84.96-1.964.3-2.236-4.588-3.64-4.892-1.395-5.62-.443-5.933.82l-.718 1.92c-.204.054-.648.156-1.252.3-.752-3.425-.364-7.306 3.676-8.496 0 .117.01.235.023.354.2 1.44 1.554 2.446 3.023 2.244 1.47-.205 2.49-1.53 2.287-2.985-.17-1.19-1.123-2.083-2.275-2.244h-.008c-.01 0-.02-.003-.025-.003-6.036-.802-9.433 7.807-8.38 11.53-.512.125-1.07.265-1.65.415-8.04-9.884-17.516-14.13-24.645-14.136-3.047 0-5.678.775-7.572 2.265-1.894 1.487-3.014 3.707-3.01 6.416 0 1.28.245 2.67.757 4.158-2.016.65-3.772 1.608-5.213 2.778-2.802 2.273-4.42 5.37-4.42 8.59-.002 1.947.596 3.928 1.85 5.767 4.345 6.32 13.057 7.836 19.85 7.847 2.393 0 4.56-.193 6.233-.45.838-.126 1.552-.27 2.116-.415.293-.08.54-.15.75-.227 3.036 6.238 10.38 6.353 12.347 6.254 2.82-.146 5.255.49 7.81 1.962.14-.74 3.236-5.064 5.93-7.868a48.9 48.9 0 0 0 .688-.768 35.51 35.51 0 0 0 2.385-3.016c.816.25 1.475.415 1.62.452l.033.012c-.983 1.66-2.02 2.886-2.875 3.432l-.006-.005h-.016c-.983.013-1.31-.27-1.546 3.87l-2.337.362c-1.13 3.127-5.858 11.386-7.206 12.99-.154-2.048-1.698-4.882-2.47.08-.416 2.633.985 5.154 2.984 3.59 2.006-1.567 7.34-13.906 7.65-14.473l1.237-.195c-.27 3.62-.727 5.396-.786 5.856-.05.524-.616 1.117-1.12.41-.49-.706-1.42.072-.384 1.86 1.034 1.795 1.77 1.432 2.06-.276.175-1.11.836-5.13 1.316-8.02l2.635-.412c-.674 4.482-4.39 16.832-5.003 18.07-.216-1.512-1.847-1.934-2.203 1.083-.36 3.02 2.536 4.943 2.944 3.215.406-1.74 5.688-20.01 6.403-20.49.294-.197.65-.382.976-.535.022 2.008-.037 5.252-.062 6.083-.036 1.56.858 2.33 2.42.44 1.568-1.887 1.247-3.265-.17-2.16-1.42 1.09-1.093-2.177-.943-2.97.15-.798.433-3.207 1.907-1.297 1.38 1.78 2.5 2.65 2.98 3.017-.732 1.056-5.738 9.36-6.892 12.875-1.277 3.914 1.228 4.998 3.935 2.82 2.704-2.18.794-2.69-.174-2.175-.97.527-1.877.646-1.132-1.52.578-1.69 4.038-7.96 5.88-11.158l-.142 1.246c-.246 2.34-.33 3.703-.213 4.51.215 1.514 1.074 2.046 2.99-.147.552-.722.08-1.3-.804-1.055-.66.192-1.117.192-.785-1.405.222-1.086.9-5.148 1.513-7.218h.002a10.947 10.947 0 0 1 .607.152c.115.032.233.063.35.1.052.015.104.033.16.05.1.03.194.063.292.098.06.02.113.042.172.062.09.034.18.07.266.104l.174.074c.083.038.166.077.248.117l.17.082a7.078 7.078 0 0 1 .31.177 3.544 3.544 0 0 1 .336.22l.127.085c.118.09.237.185.354.288 6.977-2.03 13.87-7.78 15.21-9.986l-.124-.068a13.13 13.13 0 0 0-2.43-1.005c4.662-.648 9.382-1.77 13.736-3.604 9.762-4.12 14.28-10.594 14.29-16.344.005-3.08-1.32-5.926-3.777-7.966l.01.01zm-77.804 1.526c.13.105.255.213.38.32a32.924 32.924 0 0 1 1.088.944c.158.142.318.284.473.43.19.173.37.348.56.527.12.116.242.235.36.354.214.21.43.42.643.64.06.06.117.127.182.19a47.443 47.443 0 0 1 2.493 2.78l.01.01c-.444.12-.897.245-1.35.374-1.714-3.057-4.7-5.463-7.93-6.007l2.09-1.352c.333.26.665.525.997.796l.003-.004zm-3.693 3.38a2.65 2.65 0 0 0-.317-1.152c3.37-.448 5.158 1.6 7.034 4.795l-1.213-.52-5.59-2.378c.06-.238.09-.49.082-.748l.003.002zm2.61-4.238l-2.155 1.394a7.806 7.806 0 0 0-4.14.478c-.526.21-.966.58-1.264 1.045l-9.8-4.17 6.592-4.295c3.404.945 7.102 2.754 10.767 5.548zm-7.972 4.42c.01.228.05.45.115.66l-2.052 1.327c-3.537-1.315-6.853-1.894-9.856-1.894-1.935 0-3.742.24-5.392.68-.134-.39-.246-.765-.343-1.135l8.04-5.24 9.85 4.192c-.24.415-.38.898-.362 1.413v-.002zm-.886 10.544c.462.666 1.6 1.73 3.172 2.363-.03.133-.05.26-.076.392l-6.75 4.364-13.207-5.332 10-6.467 7.316 3.084c-.532.736-.683 1.278-.46 1.6l.004-.002zm2.652 9.667l-6.19-2.506 6.61-4.274c-.486 2.624-.598 4.866-.42 6.777v.002zm0 .04l-.122-.05.123.05zm-9.52-14.505l-9.365-3.947c1.613-.45 3.396-.7 5.326-.7 2.676 0 5.628.48 8.79 1.57l-4.75 3.076zm-7.522-14.472c1.664-1.312 4.07-2.052 6.948-2.05 1.664-.003 3.485.25 5.4.77l-6.57 4.283-6.2-2.64c.136-.125.276-.246.422-.363zm-.5.44l6.177 2.63-7.953 5.183a10.957 10.957 0 0 1-.347-2.632c.007-2.178.772-3.902 2.122-5.182zm-6.953 12.9c1.47-1.193 3.307-2.16 5.45-2.773l9.423 3.97-10.002 6.47-8.208-3.318c.67-1.605 1.8-3.1 3.337-4.347v-.002zm-4.047 7.805c0-1.146.232-2.28.672-3.366l8.142 3.29-7.434 4.81c-.94-1.546-1.378-3.152-1.38-4.735zm1.673 5.196a9.5 9.5 0 0 1-.234-.38l7.493-4.845 13.205 5.337-9.864 6.375c-4.24-1.01-8.214-2.978-10.597-6.49l-.002.002zm27.72 6.398c-.083.028-.17.056-.27.085-.006 0-.01.002-.017.003-.095.03-.198.058-.31.086-1.573.405-4.596.834-8.103.832-2.62.003-5.508-.238-8.28-.886l9.84-6.363 6.304 2.547c.136 1.4.425 2.626.833 3.694l.002.002zm.043-18.09c-1.437 1.168-2.437 2.155-3.023 2.933l-7.27-3.064 4.755-3.077c.23.08.464.166.696.252l.21.08c.163.063.33.127.495.193.08.035.163.07.244.1.156.066.314.13.472.2.084.034.166.07.247.106.16.07.322.14.48.213l.242.106c.166.08.337.16.51.24l.21.1c.192.095.387.192.58.29l.15.074c.253.13.51.267.767.405l.092.052c.22.118.44.238.66.36-.168.147-.342.292-.52.44v-.002zm1.31-1.14a42.93 42.93 0 0 0-1.42-.78l-.084-.046c-.325-.17-.65-.336-.97-.49a25.684 25.684 0 0 0-1.023-.488c-.315-.144-.63-.283-.94-.415l-.248-.103c-.37-.153-.736-.3-1.1-.437l1.963-1.27a2.695 2.695 0 0 0 2.635 1.787 2.663 2.663 0 0 0 2.466-1.882l6.81 2.896c-.762.242-1.496.493-2.16.75-.06-.1-.35-.4-1.347-1.266-1.52-1.31-2.6-.067-4.583 1.742v.002zm1.805 14.614c-1.227-4.266.142-8.448 3.218-9.317 3.082-.857 6.218 1.894 7.453 6.144.26.913.432 1.82.507 2.687a4.54 4.54 0 0 0-4.774-2.62c-2.277.303-3.917 2.226-3.917 4.42a4.444 4.444 0 0 0 1.854 3.61c-1.89-.756-3.59-2.31-4.344-4.925h.002zm7.634 5.552a4.346 4.346 0 0 1-2.317-.312c-1.348-.573-2.37-1.8-2.584-3.333a4.24 4.24 0 0 1-.04-.59c0-2.095 1.566-3.933 3.74-4.22.2-.03.4-.042.6-.042 1.964 0 3.69 1.31 4.188 3.19.04.162.08.325.104.495a4.23 4.23 0 0 1-1.03 3.395 4.29 4.29 0 0 1-2.18 1.325 4.63 4.63 0 0 1-.48.096v-.002zm1.054 1.77c4.585.096 6.626.555 9.773-4.26-.754 6.062-2.15 10.15-9.774 4.26zm14.242-8.41a4.34 4.34 0 0 1-2.386 1.13 4.357 4.357 0 0 1-3.147-.77 4.24 4.24 0 0 1-1.79-3.46c0-2.1 1.568-3.93 3.74-4.22.205-.03.41-.04.61-.04 2.127 0 3.978 1.54 4.28 3.682.03.2.045.397.045.594 0 1.19-.513 2.296-1.353 3.082v.002zm2.145-5.408c-.11 1.362-.354 2.5-.735 3.422a4.367 4.367 0 0 0 .103-1.724c-.317-2.243-2.257-3.857-4.48-3.857-.21 0-.426.016-.64.045-2.27.304-3.914 2.216-3.914 4.42a4.452 4.452 0 0 0 .9 2.67c-1.17-1.13-1.903-2.95-1.973-5.43-.126-4.44 2.744-8.11 5.935-7.854 3.19.25 5.164 3.906 4.81 8.31h-.005zm-.12 16.158c.06-.347.103-.588.12-.68.13-.718-.05-1.843 1.875-.295.26.21.508.388.743.552l-2.735.422h-.002zm58.63-28.438l-9.997.518 4.925-6.748c2.726 1.448 4.44 3.67 5.07 6.23h.003zm-5.163-6.275l-4.962 6.8-14.534.75 6.355-8.72c1.902-.374 3.676-.55 5.31-.548 3.15.01 5.77.644 7.83 1.716v.002zm-35.29 8.854c.195-.14.39-.278.59-.415l15-.777-8.458 11.61-15.27.79 8.136-11.21h.002zm-8.292 11.22l-4.89.25c4.356-4.42 8.548-8.16 12.93-11.293h.003l-.606.833-7.435 10.21h-.002zM633.8 45.06a38.123 38.123 0 0 1 3.76-.97l-6.335 8.705-14.926.772c5.31-3.66 10.935-6.452 17.5-8.507zm-16.5 6.627l6.94-9.564 15.334-.794-1.15 1.58c-1.56.26-3.203.65-4.923 1.186-6.02 1.883-11.27 4.388-16.2 7.59zm13.975 1.206l14.533-.753-8.475 11.61-14.515.755 8.457-11.612zm15.92-9.984c-1.286-.26-2.685-.4-4.182-.4-1.396 0-2.878.12-4.448.373l1.14-1.562 7.375-.38c.067.623.107 1.28.114 1.97zm-.124-2.07l-7.29.377 4.83-6.63c1.284 1.514 2.152 3.575 2.462 6.255v-.003zm-10.78-9.62h.05c3.235.003 5.926.943 7.818 2.862.135.135.262.276.386.42l-4.893 6.72-15.333.795 7.432-10.24c1.59-.366 3.113-.554 4.537-.554l.004-.004zm-4.686.593l-7.412 10.21-11.142.578c6.136-5.712 12.787-9.423 18.555-10.787zm-18.67 10.897l11.178-.578-7.047 9.71a72.65 72.65 0 0 0-2.65 1.826l-11.078.575c2.87-4.44 6.148-8.302 9.598-11.532zm-11.51 14.692l.024-.04c.184-.324.37-.645.558-.964l.166-.277c.146-.242.294-.49.444-.73a57.1 57.1 0 0 1 .653-1.04l10.992-.57a68.24 68.24 0 0 0-1.63 1.218c-.224.172-.443.35-.666.523-.312.245-.626.488-.936.74-.29.235-.58.476-.87.716-.233.195-.47.39-.704.59-.34.282-.673.574-1.008.866l-.548.48c-.375.33-.75.67-1.123 1.01-.14.124-.278.247-.414.374-.41.378-.824.762-1.235 1.152l-.28.266c-.45.427-.895.86-1.345 1.3l-.154.15c-.488.477-.97.96-1.46 1.454-.004.003-.004.005-.008.006.047-.942-.03-1.77-.105-2.523a12.65 12.65 0 0 0-.058-.485c-.006-.043-.016-.085-.02-.127-.02-.118-.038-.238-.06-.355-.018-.094-.04-.186-.06-.278-.014-.066-.024-.132-.04-.197-.03-.13-.062-.26-.095-.388l-.02-.08a12.682 12.682 0 0 0-.394-1.24l-.032-.093-.09-.232-.04-.103-.03-.08c.192-.35.384-.694.58-1.038l.007-.002zm-2.01 14.12c1.32-2.067 1.973-3.785 2.27-5.25l.584-.6 4.92-.254-4.96 6.807a37.73 37.73 0 0 1-2.814-.704v.002zm2.963.73l4.967-6.843 15.27-.796-6.438 8.84a99.066 99.066 0 0 1-10.215-.682 64.422 64.422 0 0 1-3.58-.524l-.003.004zm8.424 12.094l-.052.504c-1.03-.81-2.396-2.062-2.852-2.718.454.11.882.2 1.276.282l.045.01.36.073c.497.098.982.185 1.456.27h.013c-.08.504-.153.965-.24 1.58h-.005zm1.818-3.623c-2.023 1.227-4.438.616-6.814-.676.834-.514 3.044-2.817 4.875-5.813 2.115.147 4.465.245 6.97.245.314 0 .64-.008.957-.01-1.874 2.86-4.446 5.32-5.988 6.25l-.002.003zm5.03-7.254c-.454 0-.904-.008-1.35-.01l6.445-8.85 14.516-.75-6.253 8.56c-4.583.77-9.18 1.05-13.36 1.046v.003zm24.965-4.297c-3.625 1.53-7.54 2.556-11.463 3.223l6.237-8.547 14.563-.754c-2.2 2.254-5.278 4.362-9.337 6.076zm9.444-6.183l-14.593.757 8.477-11.612 10.097-.523a9.58 9.58 0 0 1 .25 2.15c.005 2.945-1.333 6.214-4.23 9.228zm-69.306 8.17c-.25-1.79-1.936-3.047-3.753-2.797-1.823.25-3.094 1.904-2.838 3.702 0 .02.006.042.01.064.285 1.754 1.943 2.973 3.738 2.725a4.457 4.457 0 0 0 .302-.054l-.236-2.076-.03-.268 1.938 1.393a3.257 3.257 0 0 0 .868-2.688v-.002zm9.165-8.3c-1.82.25-3.094 1.9-2.84 3.694.256 1.796 1.937 3.047 3.755 2.794l-.227-2.48 2.08 1.598a3.267 3.267 0 0 0 .986-2.813c-.25-1.793-1.93-3.054-3.755-2.795v.002z"/><path d="M581.112 77.612c7.624 5.892 9.02 1.803 9.773-4.26-3.147 4.816-5.188 4.357-9.773 4.26z" fill="#fff"/></svg>